<svg xmlns="http://www.w3.org/2000/svg" width="32" height="32" fill="none" viewBox="0 0 32 32">
  <path fill="#7D7" d="M4.04 12.546C3.976 8.29 1.966 5.532.97 4.685c6.917-.699 9.993 4.526 10.666 7.226 2.004-.762 3.394-1.826 3.394-2.144-.081-.715-3.717-2.223-5.333-3.335-1.293-.89-1.616-2.276-1.616-2.859V2.144s-1.455.032-1.455-1.112C6.626.206 7.38 0 7.757 0H16v2.223H9.91c-.108.636-.114 2.129.727 3.018 1.05 1.112 2.02 1.826 3.151 2.223.905.318 1.943 1.324 2.212 1.747v1.27c-.538.583-2.034 1.859-3.262 2.304-1.536.555-2.748 2.461-2.828 3.335-.065.698 1.265 2.25 1.939 2.938 1.087 1.058 3.44 3.319 4.151 3.89v2.939c-2.456-3.685-5.629-6.406-6.949-7.306-4.008-2.604-5.01-5.108-5.01-6.035Z"/>
  <path fill="#7D7" d="M27.959 12.546c.064-4.256 2.074-7.014 3.07-7.861-6.917-.699-9.993 4.526-10.666 7.226-2.004-.762-3.394-1.826-3.394-2.144.08-.715 3.717-2.223 5.333-3.335 1.293-.89 1.616-2.276 1.616-2.859V2.144s1.455.032 1.455-1.112C25.373.206 24.619 0 24.242 0h-8.243v2.223h6.091c.108.636.113 2.129-.727 3.018-1.05 1.112-2.02 1.826-3.151 2.223-.905.318-1.943 1.324-2.213 1.747v1.27c.54.583 2.035 1.859 3.263 2.304 1.535.555 2.748 2.461 2.828 3.335.065.698-1.265 2.25-1.939 2.938-1.087 1.058-3.44 3.319-4.152 3.89v2.939c2.457-3.685 5.63-6.406 6.95-7.306 4.008-2.604 5.01-5.108 5.01-6.035Z"/>
  <path fill="#42AB49" d="M32 18.58 16 32 0 18.58c2.02-.45 9.6-.683 16 8.02 6.4-8.703 13.98-8.47 16-8.02Z"/>
</svg>
